<svg width="9" height="14" viewBox="0 0 9 14" fill="none" xmlns="http://www.w3.org/2000/svg">
    <path
        d="M2.98738 7.03122C2.98738 7.66602 2.98018 8.30082 2.98858 8.93562C3.00538 10.21 3.83338 11.0464 5.08738 11.0572C5.84698 11.0644 6.60658 11.0476 7.36618 11.0644C7.94818 11.0776 8.37418 11.4232 8.52898 11.9632C8.66818 12.4468 8.50378 12.988 8.06458 13.2628C7.84378 13.4008 7.55698 13.4776 7.29658 13.4884C6.56338 13.5184 5.82778 13.5028 5.09218 13.498C2.66338 13.4848 0.793773 11.812 0.634173 9.34722C0.528573 7.71762 0.546573 6.06882 0.658173 4.43922C0.805773 2.28642 2.66338 0.580017 4.78138 0.512817C5.63938 0.485217 6.49978 0.496016 7.35898 0.506816C8.04778 0.515216 8.56018 1.02642 8.57458 1.68762C8.58898 2.36442 8.08378 2.91282 7.37818 2.93562C6.63178 2.95962 5.88418 2.93922 5.13658 2.94282C3.81298 2.95002 2.99578 3.78042 2.98738 5.12802C2.98378 5.76282 2.98738 6.39762 2.98738 7.03242V7.03122Z"
        fill="#00CCB8" />
</svg>