<svg width="9" height="14" viewBox="0 0 9 14" fill="none" xmlns="http://www.w3.org/2000/svg">
    <path
        d="M2.89644 8.21917C2.64444 9.59557 3.22644 10.6948 4.35084 10.9924C4.55243 11.0452 4.76964 11.0536 4.97964 11.056C5.70204 11.0632 6.42444 11.0524 7.14684 11.0608C7.90644 11.0704 8.44164 11.5924 8.43443 12.2968C8.42723 12.9868 7.90043 13.4884 7.15883 13.4956C6.42444 13.5028 5.68884 13.5004 4.95444 13.4968C2.52444 13.4836 0.653636 11.812 0.494036 9.34597C0.388436 7.71637 0.406436 6.06636 0.518036 4.43676C0.665636 2.28396 2.52444 0.578757 4.64364 0.511557C5.48964 0.485157 6.33804 0.495957 7.18524 0.504357C7.90164 0.510357 8.42243 1.01556 8.43443 1.69116C8.44763 2.38356 7.92804 2.91996 7.19604 2.93676C6.49884 2.95356 5.79924 2.97636 5.10324 2.93316C3.74004 2.85036 2.76204 3.86316 2.84484 5.24676C2.85444 5.40876 2.84604 5.57196 2.84604 5.77956C3.01404 5.77956 3.14604 5.77956 3.27924 5.77956C4.56204 5.77956 5.84604 5.77716 7.12883 5.77956C7.88963 5.78076 8.43083 6.28716 8.43443 6.99156C8.43804 7.69716 7.89804 8.21437 7.14204 8.21677C5.85924 8.22037 4.57524 8.21677 3.29244 8.21677C3.15804 8.21677 3.02484 8.21677 2.89764 8.21677L2.89644 8.21917Z"
        fill="#00CCB8" />
</svg>