<svg width="25" height="24" viewBox="0 0 25 24" fill="none" xmlns="http://www.w3.org/2000/svg">
    <path
        d="M3.086 17.414C2.7109 17.789 2.50011 18.2976 2.5 18.828V21C2.5 21.2653 2.60536 21.5196 2.79289 21.7071C2.98043 21.8947 3.23478 22 3.5 22H6.5C6.76522 22 7.01957 21.8947 7.20711 21.7071C7.39464 21.5196 7.5 21.2653 7.5 21V20C7.5 19.7348 7.60536 19.4805 7.79289 19.2929C7.98043 19.1054 8.23478 19 8.5 19H9.5C9.76522 19 10.0196 18.8947 10.2071 18.7071C10.3946 18.5196 10.5 18.2653 10.5 18V17C10.5 16.7348 10.6054 16.4805 10.7929 16.2929C10.9804 16.1054 11.2348 16 11.5 16H11.672C12.2024 15.9999 12.711 15.7891 13.086 15.414L13.9 14.6C15.2898 15.0842 16.8028 15.0823 18.1915 14.5948C19.5801 14.1072 20.7622 13.1629 21.5444 11.9162C22.3265 10.6695 22.6624 9.19421 22.4971 7.73178C22.3318 6.26934 21.6751 4.90629 20.6344 3.86561C19.5937 2.82493 18.2307 2.16822 16.7683 2.00293C15.3058 1.83763 13.8306 2.17353 12.5839 2.95568C11.3372 3.73782 10.3928 4.91991 9.90525 6.30856C9.41771 7.69721 9.41585 9.2102 9.9 10.6L3.086 17.414Z"
        stroke="white" stroke-opacity="0.5" stroke-width="2" stroke-linecap="round" stroke-linejoin="round" />
    <path
        d="M17 8C17.2761 8 17.5 7.77614 17.5 7.5C17.5 7.22386 17.2761 7 17 7C16.7239 7 16.5 7.22386 16.5 7.5C16.5 7.77614 16.7239 8 17 8Z"
        fill="white" fill-opacity="0.5" stroke="white" stroke-opacity="0.5" stroke-width="2" stroke-linecap="round"
        stroke-linejoin="round" />
</svg>