<svg width="8" height="14" viewBox="0 0 8 14" fill="none" xmlns="http://www.w3.org/2000/svg">
    <path d="M2.8707 13.4979C2.3355 13.4979 1.7991 13.5051 1.2639 13.4955C0.554706 13.4823 0.0327063 12.9675 0.0267063 12.2919C0.0207063 11.6223 0.540306 11.0799 1.24711 11.0643C2.1567 11.0451 3.0663 11.0595 3.9759 11.0583C4.9839 11.0583 5.6127 10.5135 5.6115 9.64593C5.6115 8.77593 4.9791 8.22153 3.9831 8.21913C2.0379 8.21313 0.533106 7.02993 0.115506 5.17833C-0.398094 2.89593 1.30231 0.599131 3.5931 0.517531C4.6503 0.480331 5.7111 0.497131 6.7695 0.505531C7.4799 0.510331 7.9995 1.03113 8.0031 1.70793C8.0067 2.38593 7.4967 2.91993 6.7851 2.93433C5.8131 2.95353 4.8411 2.93433 3.8703 2.94273C3.1683 2.94753 2.6343 3.35073 2.4735 3.97713C2.2371 4.89753 2.8815 5.77353 3.8283 5.77353C4.5603 5.77353 5.2671 5.85273 5.9295 6.19593C7.4715 6.99513 8.2911 8.76153 7.9143 10.4811C7.5399 12.1887 6.0867 13.4259 4.3659 13.4871C3.8679 13.5051 3.3699 13.4895 2.8707 13.4895C2.8707 13.4919 2.8707 13.4943 2.8707 13.4967V13.4979Z" fill="#00CCB8"/>
    </svg>
    