<svg width="105" height="161" viewBox="0 0 105 161" fill="none" xmlns="http://www.w3.org/2000/svg">
    <g clip-path="url(#clip0_246_3471)">
    <path d="M36.3336 39.9072C36.4974 40.7146 36.6613 41.522 36.8782 42.3003L62.7245 151.188L87.8608 40.5686C90.5741 27.3857 82.7296 14.05 69.5238 10.1717C55.5918 6.0355 40.976 13.9363 36.9065 27.7929C35.7111 31.8635 35.5723 35.9765 36.3047 39.854L36.3336 39.9072Z" fill="url(#paint0_linear_246_3471)"/>
    <path d="M62.77 160.894L34.7718 42.7983C34.5429 42.0611 34.3501 41.2005 34.1694 40.2988C33.3601 35.7734 33.5713 31.4137 34.815 27.1786C39.2105 12.2119 55.0594 3.60127 70.1108 8.02156C84.2188 12.1648 92.9702 26.6602 90.0129 40.9773L62.7821 160.853L62.77 160.894ZM38.51 39.4744C38.6449 40.2286 38.8329 40.9538 39.033 41.6378L62.6913 141.442L85.7451 40.0366C88.2675 27.9589 80.8545 15.7325 68.9201 12.2276C56.1533 8.5229 42.7585 15.755 39.0393 28.4192C37.9766 32.0375 37.7825 35.7323 38.51 39.4744L36.3337 39.9072L38.498 39.5155L38.51 39.4744Z" fill="#00CCB8"/>
    </g>
    <defs>
    <linearGradient id="paint0_linear_246_3471" x1="24.9398" y1="68.5403" x2="82.0693" y2="85.3181" gradientUnits="userSpaceOnUse">
    <stop stop-color="#754500"/>
    <stop offset="0.62" stop-color="#FCD877"/>
    <stop offset="1" stop-color="#BD8E37"/>
    </linearGradient>
    <clipPath id="clip0_246_3471">
    <rect width="64.5005" height="148.746" fill="white" transform="translate(42.7969) rotate(16.3665)"/>
    </clipPath>
    </defs>
    </svg>
    